<mxfile host="65bd71144e">
    <diagram name="singleton_1" id="-Z52gMzrZzrflX0aPiBJ">
        <mxGraphModel dx="1039" dy="580" grid="1" gridSize="10" guides="1" tooltips="1" connect="1" arrows="1" fold="1" page="1" pageScale="1" pageWidth="827" pageHeight="1169" math="0" shadow="0">
            <root>
                <mxCell id="5Akw9gAnhdAU1XaQ8N-A-0"/>
                <mxCell id="5Akw9gAnhdAU1XaQ8N-A-1" parent="5Akw9gAnhdAU1XaQ8N-A-0"/>
                <mxCell id="5Akw9gAnhdAU1XaQ8N-A-4" style="edgeStyle=orthogonalEdgeStyle;rounded=0;orthogonalLoop=1;jettySize=auto;html=1;exitX=0.5;exitY=1;exitDx=0;exitDy=0;" parent="5Akw9gAnhdAU1XaQ8N-A-1" edge="1">
                    <mxGeometry relative="1" as="geometry">
                        <mxPoint x="190" y="370" as="sourcePoint"/>
                        <mxPoint x="190" y="370" as="targetPoint"/>
                    </mxGeometry>
                </mxCell>
                <mxCell id="0" value="Singleton" style="swimlane;fontStyle=1;align=center;verticalAlign=top;childLayout=stackLayout;horizontal=1;startSize=26;horizontalStack=0;resizeParent=1;resizeParentMax=0;resizeLast=0;collapsible=1;marginBottom=0;" parent="5Akw9gAnhdAU1XaQ8N-A-1" vertex="1">
                    <mxGeometry x="160" y="240" width="240" height="190" as="geometry">
                        <mxRectangle x="160" y="240" width="100" height="30" as="alternateBounds"/>
                    </mxGeometry>
                </mxCell>
                <mxCell id="1" value="- instance: Singleton" style="text;strokeColor=none;fillColor=none;align=left;verticalAlign=top;spacingLeft=4;spacingRight=4;overflow=hidden;rotatable=0;points=[[0,0.5],[1,0.5]];portConstraint=eastwest;fontStyle=4" parent="0" vertex="1">
                    <mxGeometry y="26" width="240" height="26" as="geometry"/>
                </mxCell>
                <mxCell id="sBnn5ePMyYv_SZLFbeLR-3" value="- counter: int" style="text;strokeColor=none;fillColor=none;align=left;verticalAlign=top;spacingLeft=4;spacingRight=4;overflow=hidden;rotatable=0;points=[[0,0.5],[1,0.5]];portConstraint=eastwest;" parent="0" vertex="1">
                    <mxGeometry y="52" width="240" height="26" as="geometry"/>
                </mxCell>
                <mxCell id="2" value="" style="line;strokeWidth=1;fillColor=none;align=left;verticalAlign=middle;spacingTop=-1;spacingLeft=3;spacingRight=3;rotatable=0;labelPosition=right;points=[];portConstraint=eastwest;strokeColor=inherit;" parent="0" vertex="1">
                    <mxGeometry y="78" width="240" height="8" as="geometry"/>
                </mxCell>
                <mxCell id="3" value="- Singleton()" style="text;strokeColor=none;fillColor=none;align=left;verticalAlign=top;spacingLeft=4;spacingRight=4;overflow=hidden;rotatable=0;points=[[0,0.5],[1,0.5]];portConstraint=eastwest;" parent="0" vertex="1">
                    <mxGeometry y="86" width="240" height="26" as="geometry"/>
                </mxCell>
                <mxCell id="sBnn5ePMyYv_SZLFbeLR-4" value="+ getInstance():Singleton" style="text;strokeColor=none;fillColor=none;align=left;verticalAlign=top;spacingLeft=4;spacingRight=4;overflow=hidden;rotatable=0;points=[[0,0.5],[1,0.5]];portConstraint=eastwest;fontStyle=4" parent="0" vertex="1">
                    <mxGeometry y="112" width="240" height="26" as="geometry"/>
                </mxCell>
                <mxCell id="sBnn5ePMyYv_SZLFbeLR-5" value="+ getCounter():int" style="text;strokeColor=none;fillColor=none;align=left;verticalAlign=top;spacingLeft=4;spacingRight=4;overflow=hidden;rotatable=0;points=[[0,0.5],[1,0.5]];portConstraint=eastwest;" parent="0" vertex="1">
                    <mxGeometry y="138" width="240" height="26" as="geometry"/>
                </mxCell>
                <mxCell id="sBnn5ePMyYv_SZLFbeLR-6" value="+ actOnEvent():void" style="text;strokeColor=none;fillColor=none;align=left;verticalAlign=top;spacingLeft=4;spacingRight=4;overflow=hidden;rotatable=0;points=[[0,0.5],[1,0.5]];portConstraint=eastwest;" parent="0" vertex="1">
                    <mxGeometry y="164" width="240" height="26" as="geometry"/>
                </mxCell>
                <mxCell id="sBnn5ePMyYv_SZLFbeLR-7" value="" style="endArrow=open;endFill=1;endSize=12;html=1;exitX=1;exitY=0.5;exitDx=0;exitDy=0;entryX=0.75;entryY=0;entryDx=0;entryDy=0;" parent="0" source="3" target="0" edge="1">
                    <mxGeometry width="160" relative="1" as="geometry">
                        <mxPoint x="530" y="70" as="sourcePoint"/>
                        <mxPoint x="450" y="-30" as="targetPoint"/>
                        <Array as="points">
                            <mxPoint x="360" y="100"/>
                            <mxPoint x="360" y="-80"/>
                            <mxPoint x="320" y="-80"/>
                            <mxPoint x="180" y="-80"/>
                        </Array>
                    </mxGeometry>
                </mxCell>
            </root>
        </mxGraphModel>
    </diagram>
</mxfile>